<?xml version="1.0" encoding="UTF-8"?>
<svg id="Layer_1" data-name="Layer 1" xmlns="http://www.w3.org/2000/svg" viewBox="0 0 256 256">
  <defs>
    <style>
      .cls-1 {
        fill: #f49cb1;
      }

      .cls-2 {
        fill: #fff0e3;
      }
    </style>
  </defs>
  <path class="cls-1" d="m241.87,256c7.8,0,14.13-6.33,14.13-14.13V14.13c0-7.8-6.33-14.13-14.13-14.13H14.13C6.32,0,0,6.32,0,14.13v227.74c0,7.8,6.32,14.13,14.13,14.13h227.74"/>
  <path class="cls-2" d="m176.63,256v-99.14h33.28l4.98-38.64h-38.26v-24.67c0-11.19,3.11-18.81,19.15-18.81h20.46v-34.56c-3.54-.47-15.68-1.52-29.81-1.52-29.5,0-49.69,18-49.69,51.07v28.49h-33.36v38.64h33.36v99.14h39.9"/>
</svg>